<svg height="480pt" viewBox="0 -108 480.00031 480" width="480pt" xmlns="http://www.w3.org/2000/svg"><path d="m471.921875 111.839844-61.28125-62.640625c-5.957031-5.5625-13.699219-8.824219-21.839844-9.199219h-60.800781v128c0 4.417969-3.582031 8-8 8h-240v32h19.28125c6.386719-14.582031 20.796875-24.003906 36.71875-24.003906s30.332031 9.421875 36.71875 24.003906h22.5625c6.386719-14.582031 20.796875-24.003906 36.71875-24.003906s30.332031 9.421875 36.71875 24.003906h94.5625c6.386719-14.582031 20.796875-24.003906 36.71875-24.003906s30.332031 9.421875 36.71875 24.003906h42.402344c.59375-2.625.890625-5.308594.878906-8v-68.160156c-.011719-7.460938-2.90625-14.625-8.078125-20zm-87.921875.160156v-56h4.800781c3.835938.359375 7.46875 1.894531 10.398438 4.398438l50.480469 51.601562zm0 0" fill="#006837"/><path d="m449.679688 112h-65.679688v-56h4.800781c3.835938.359375 7.46875 1.894531 10.398438 4.398438zm0 0" fill="#9fe0f6"/><path d="m172.71875 208c-6.386719-14.582031-20.796875-24.003906-36.71875-24.003906s-30.332031 9.421875-36.71875 24.003906c-2.160156 5.058594-3.277344 10.5-3.28125 16 0 22.089844 17.910156 40 40 40s40-17.910156 40-40c-.003906-5.5-1.121094-10.941406-3.28125-16zm-36.71875 40c-13.253906 0-24-10.746094-24-24s10.746094-24 24-24 24 10.746094 24 24c-.039062 13.238281-10.761719 23.960938-24 24zm0 0"/><path d="m160 224c0 13.253906-10.746094 24-24 24s-24-10.746094-24-24 10.746094-24 24-24 24 10.746094 24 24zm0 0" fill="#ccc"/><path d="m436.71875 208c-6.386719-14.582031-20.796875-24.003906-36.71875-24.003906s-30.332031 9.421875-36.71875 24.003906c-2.160156 5.058594-3.277344 10.5-3.28125 16-.019531 20.550781 15.535156 37.773438 35.980469 39.835938 20.445312 2.066406 39.128906-11.695313 43.21875-31.835938.550781-2.628906.820312-5.3125.800781-8-.003906-5.5-1.121094-10.941406-3.28125-16zm-36.71875 40c-13.253906 0-24-10.746094-24-24s10.746094-24 24-24 24 10.746094 24 24c-.039062 13.238281-10.761719 23.960938-24 24zm0 0"/><path d="m424 224c0 13.253906-10.746094 24-24 24s-24-10.746094-24-24 10.746094-24 24-24 24 10.746094 24 24zm0 0" fill="#ccc"/><path d="m268.71875 208c-6.386719-14.582031-20.796875-24.003906-36.71875-24.003906s-30.332031 9.421875-36.71875 24.003906c-2.160156 5.058594-3.277344 10.5-3.28125 16 0 22.089844 17.910156 40 40 40s40-17.910156 40-40c-.003906-5.5-1.121094-10.941406-3.28125-16zm-36.71875 40c-13.253906 0-24-10.746094-24-24s10.746094-24 24-24 24 10.746094 24 24c-.039062 13.238281-10.761719 23.960938-24 24zm0 0"/><path d="m256 224c0 13.253906-10.746094 24-24 24s-24-10.746094-24-24 10.746094-24 24-24 24 10.746094 24 24zm0 0" fill="#ccc"/><path d="m195.28125 208c-2.160156 5.058594-3.277344 10.5-3.28125 16h-16c-.003906-5.5-1.121094-10.941406-3.28125-16zm0 0" fill="#034926"/><path d="m99.28125 208c-2.160156 5.058594-3.277344 10.5-3.28125 16h-24c-4.417969 0-8-3.582031-8-8v-40h16v32zm0 0" fill="#034926"/><path d="m363.28125 208c-2.160156 5.058594-3.277344 10.5-3.28125 16h-88c-.003906-5.5-1.121094-10.941406-3.28125-16zm0 0" fill="#034926"/><path d="m392 16c0 4.417969-3.582031 8-8 8h-56v144c0 4.417969-3.582031 8-8 8h-258.238281l-14.160157 42.558594c-1.128906 3.238281-4.171874 5.417968-7.601562 5.441406h-32c-4.417969 0-8-3.582031-8-8v-128c-.00390625-1.570312.46875-3.105469 1.359375-4.398438l48-72c1.472656-2.238281 3.964844-3.585937 6.640625-3.601562h32v128c0 4.417969 3.582031 8 8 8s8-3.582031 8-8v-128h40v128c0 4.417969 3.582031 8 8 8s8-3.582031 8-8v-128h40v128c0 4.417969 3.582031 8 8 8s8-3.582031 8-8v-128h40v128c0 4.417969 3.582031 8 8 8s8-3.582031 8-8v-128h112c4.417969 0 8 3.582031 8 8zm0 0" fill="#068445"/><g fill="#006837"><path d="m104 8v128c0 4.417969-3.582031 8-8 8s-8-3.582031-8-8v-128c0-4.417969 3.582031-8 8-8s8 3.582031 8 8zm0 0"/><path d="m160 8v128c0 4.417969-3.582031 8-8 8s-8-3.582031-8-8v-128c0-4.417969 3.582031-8 8-8s8 3.582031 8 8zm0 0"/><path d="m216 8v128c0 4.417969-3.582031 8-8 8s-8-3.582031-8-8v-128c0-4.417969 3.582031-8 8-8s8 3.582031 8 8zm0 0"/><path d="m272 8v128c0 4.417969-3.582031 8-8 8s-8-3.582031-8-8v-128c0-4.417969 3.582031-8 8-8s8 3.582031 8 8zm0 0"/></g><path d="m479.121094 208c-2.644532 10.351562-12.503906 17.171875-23.121094 16h-16c-.003906-5.5-1.121094-10.941406-3.28125-16zm0 0" fill="#034926"/></svg>